<svg xmlns="http://www.w3.org/2000/svg" viewBox="0 33 800 533" width="1200" height="800" preserveAspectRatio="xMidYMid slice"><defs>
<linearGradient id="sky" x1="0" y1="0" x2="0" y2="1"><stop offset="0" stop-color="#3f86c4"/><stop offset=".65" stop-color="#9fd0ee"/><stop offset="1" stop-color="#e3f2fa"/></linearGradient>
<linearGradient id="gl" x1="0" y1="0" x2="1" y2="1"><stop offset="0" stop-color="#cfeaf1" stop-opacity=".55"/><stop offset=".5" stop-color="#7fbfd2" stop-opacity=".35"/><stop offset="1" stop-color="#d9f1f4" stop-opacity=".5"/></linearGradient>
<linearGradient id="rf" x1="0" y1="0" x2="1" y2="0"><stop offset="0" stop-color="#fff" stop-opacity=".7"/><stop offset="1" stop-color="#fff" stop-opacity="0"/></linearGradient>
<linearGradient id="al" x1="0" y1="0" x2="1" y2="0"><stop offset="0" stop-color="#8b9197"/><stop offset=".45" stop-color="#eceff2"/><stop offset="1" stop-color="#868c92"/></linearGradient>
<linearGradient id="alv" x1="0" y1="0" x2="0" y2="1"><stop offset="0" stop-color="#eceff2"/><stop offset="1" stop-color="#8b9197"/></linearGradient>
<linearGradient id="dk" x1="0" y1="0" x2="1" y2="0"><stop offset="0" stop-color="#23272b"/><stop offset=".5" stop-color="#555c63"/><stop offset="1" stop-color="#23272b"/></linearGradient>
<linearGradient id="gr" x1="0" y1="0" x2="0" y2="1"><stop offset="0" stop-color="#8a8d90"/><stop offset="1" stop-color="#55585b"/></linearGradient>
<linearGradient id="fl" x1="0" y1="0" x2="0" y2="1"><stop offset="0" stop-color="#d9d3c8"/><stop offset="1" stop-color="#a9a296"/></linearGradient>
<linearGradient id="wl" x1="0" y1="0" x2="0" y2="1"><stop offset="0" stop-color="#f4f1ec"/><stop offset="1" stop-color="#dcd7cf"/></linearGradient>
<linearGradient id="grn" x1="0" y1="0" x2="0" y2="1"><stop offset="0" stop-color="#5f9a4a"/><stop offset="1" stop-color="#355f2b"/></linearGradient>
<filter id="blur"><feGaussianBlur stdDeviation="9"/></filter>
<filter id="sh" x="-20%" y="-20%" width="140%" height="150%"><feDropShadow dx="0" dy="6" stdDeviation="6" flood-opacity=".35"/></filter>
</defs><rect x="0" y="0" width="800" height="600" fill="url(#sky)" /><g fill="#fff" opacity=".85" filter="url(#blur)" transform="translate(0,-30)"><ellipse cx="170" cy="120" rx="110" ry="26"/><ellipse cx="260" cy="105" rx="70" ry="22"/><ellipse cx="560" cy="210" rx="130" ry="28"/><ellipse cx="660" cy="190" rx="80" ry="22"/><ellipse cx="300" cy="360" rx="120" ry="24"/></g><rect x="80" y="200" width="170" height="320" fill="#8aa0ae" /><rect x="580" y="160" width="150" height="360" fill="#7d94a3" /><rect x="86" y="206" width="16" height="17" fill="#b9d6e6" /><rect x="86" y="228" width="16" height="17" fill="#9ec0d3" /><rect x="86" y="250" width="16" height="17" fill="#b9d6e6" /><rect x="86" y="272" width="16" height="17" fill="#9ec0d3" /><rect x="86" y="294" width="16" height="17" fill="#b9d6e6" /><rect x="86" y="316" width="16" height="17" fill="#b9d6e6" /><rect x="86" y="338" width="16" height="17" fill="#9ec0d3" /><rect x="86" y="360" width="16" height="17" fill="#b9d6e6" /><rect x="86" y="382" width="16" height="17" fill="#9ec0d3" /><rect x="86" y="404" width="16" height="17" fill="#b9d6e6" /><rect x="86" y="426" width="16" height="17" fill="#9ec0d3" /><rect x="86" y="448" width="16" height="17" fill="#9ec0d3" /><rect x="86" y="470" width="16" height="17" fill="#b9d6e6" /><rect x="86" y="492" width="16" height="17" fill="#b9d6e6" /><rect x="106" y="206" width="16" height="17" fill="#9ec0d3" /><rect x="106" y="228" width="16" height="17" fill="#9ec0d3" /><rect x="106" y="250" width="16" height="17" fill="#b9d6e6" /><rect x="106" y="272" width="16" height="17" fill="#b9d6e6" /><rect x="106" y="294" width="16" height="17" fill="#b9d6e6" /><rect x="106" y="316" width="16" height="17" fill="#b9d6e6" /><rect x="106" y="338" width="16" height="17" fill="#b9d6e6" /><rect x="106" y="360" width="16" height="17" fill="#9ec0d3" /><rect x="106" y="382" width="16" height="17" fill="#b9d6e6" /><rect x="106" y="404" width="16" height="17" fill="#9ec0d3" /><rect x="106" y="426" width="16" height="17" fill="#9ec0d3" /><rect x="106" y="448" width="16" height="17" fill="#9ec0d3" /><rect x="106" y="470" width="16" height="17" fill="#b9d6e6" /><rect x="106" y="492" width="16" height="17" fill="#b9d6e6" /><rect x="126" y="206" width="16" height="17" fill="#9ec0d3" /><rect x="126" y="228" width="16" height="17" fill="#b9d6e6" /><rect x="126" y="250" width="16" height="17" fill="#b9d6e6" /><rect x="126" y="272" width="16" height="17" fill="#b9d6e6" /><rect x="126" y="294" width="16" height="17" fill="#b9d6e6" /><rect x="126" y="316" width="16" height="17" fill="#9ec0d3" /><rect x="126" y="338" width="16" height="17" fill="#9ec0d3" /><rect x="126" y="360" width="16" height="17" fill="#9ec0d3" /><rect x="126" y="382" width="16" height="17" fill="#b9d6e6" /><rect x="126" y="404" width="16" height="17" fill="#b9d6e6" /><rect x="126" y="426" width="16" height="17" fill="#b9d6e6" /><rect x="126" y="448" width="16" height="17" fill="#b9d6e6" /><rect x="126" y="470" width="16" height="17" fill="#b9d6e6" /><rect x="126" y="492" width="16" height="17" fill="#9ec0d3" /><rect x="146" y="206" width="16" height="17" fill="#b9d6e6" /><rect x="146" y="228" width="16" height="17" fill="#b9d6e6" /><rect x="146" y="250" width="16" height="17" fill="#9ec0d3" /><rect x="146" y="272" width="16" height="17" fill="#b9d6e6" /><rect x="146" y="294" width="16" height="17" fill="#b9d6e6" /><rect x="146" y="316" width="16" height="17" fill="#b9d6e6" /><rect x="146" y="338" width="16" height="17" fill="#b9d6e6" /><rect x="146" y="360" width="16" height="17" fill="#9ec0d3" /><rect x="146" y="382" width="16" height="17" fill="#b9d6e6" /><rect x="146" y="404" width="16" height="17" fill="#9ec0d3" /><rect x="146" y="426" width="16" height="17" fill="#b9d6e6" /><rect x="146" y="448" width="16" height="17" fill="#b9d6e6" /><rect x="146" y="470" width="16" height="17" fill="#9ec0d3" /><rect x="146" y="492" width="16" height="17" fill="#b9d6e6" /><rect x="166" y="206" width="16" height="17" fill="#9ec0d3" /><rect x="166" y="228" width="16" height="17" fill="#b9d6e6" /><rect x="166" y="250" width="16" height="17" fill="#b9d6e6" /><rect x="166" y="272" width="16" height="17" fill="#b9d6e6" /><rect x="166" y="294" width="16" height="17" fill="#b9d6e6" /><rect x="166" y="316" width="16" height="17" fill="#b9d6e6" /><rect x="166" y="338" width="16" height="17" fill="#b9d6e6" /><rect x="166" y="360" width="16" height="17" fill="#b9d6e6" /><rect x="166" y="382" width="16" height="17" fill="#b9d6e6" /><rect x="166" y="404" width="16" height="17" fill="#b9d6e6" /><rect x="166" y="426" width="16" height="17" fill="#b9d6e6" /><rect x="166" y="448" width="16" height="17" fill="#b9d6e6" /><rect x="166" y="470" width="16" height="17" fill="#b9d6e6" /><rect x="166" y="492" width="16" height="17" fill="#b9d6e6" /><rect x="186" y="206" width="16" height="17" fill="#9ec0d3" /><rect x="186" y="228" width="16" height="17" fill="#b9d6e6" /><rect x="186" y="250" width="16" height="17" fill="#b9d6e6" /><rect x="186" y="272" width="16" height="17" fill="#b9d6e6" /><rect x="186" y="294" width="16" height="17" fill="#b9d6e6" /><rect x="186" y="316" width="16" height="17" fill="#9ec0d3" /><rect x="186" y="338" width="16" height="17" fill="#b9d6e6" /><rect x="186" y="360" width="16" height="17" fill="#b9d6e6" /><rect x="186" y="382" width="16" height="17" fill="#9ec0d3" /><rect x="186" y="404" width="16" height="17" fill="#b9d6e6" /><rect x="186" y="426" width="16" height="17" fill="#9ec0d3" /><rect x="186" y="448" width="16" height="17" fill="#9ec0d3" /><rect x="186" y="470" width="16" height="17" fill="#9ec0d3" /><rect x="186" y="492" width="16" height="17" fill="#b9d6e6" /><rect x="206" y="206" width="16" height="17" fill="#9ec0d3" /><rect x="206" y="228" width="16" height="17" fill="#9ec0d3" /><rect x="206" y="250" width="16" height="17" fill="#b9d6e6" /><rect x="206" y="272" width="16" height="17" fill="#b9d6e6" /><rect x="206" y="294" width="16" height="17" fill="#9ec0d3" /><rect x="206" y="316" width="16" height="17" fill="#b9d6e6" /><rect x="206" y="338" width="16" height="17" fill="#b9d6e6" /><rect x="206" y="360" width="16" height="17" fill="#b9d6e6" /><rect x="206" y="382" width="16" height="17" fill="#b9d6e6" /><rect x="206" y="404" width="16" height="17" fill="#b9d6e6" /><rect x="206" y="426" width="16" height="17" fill="#9ec0d3" /><rect x="206" y="448" width="16" height="17" fill="#b9d6e6" /><rect x="206" y="470" width="16" height="17" fill="#b9d6e6" /><rect x="206" y="492" width="16" height="17" fill="#b9d6e6" /><rect x="226" y="206" width="16" height="17" fill="#b9d6e6" /><rect x="226" y="228" width="16" height="17" fill="#9ec0d3" /><rect x="226" y="250" width="16" height="17" fill="#9ec0d3" /><rect x="226" y="272" width="16" height="17" fill="#9ec0d3" /><rect x="226" y="294" width="16" height="17" fill="#9ec0d3" /><rect x="226" y="316" width="16" height="17" fill="#b9d6e6" /><rect x="226" y="338" width="16" height="17" fill="#b9d6e6" /><rect x="226" y="360" width="16" height="17" fill="#9ec0d3" /><rect x="226" y="382" width="16" height="17" fill="#9ec0d3" /><rect x="226" y="404" width="16" height="17" fill="#b9d6e6" /><rect x="226" y="426" width="16" height="17" fill="#b9d6e6" /><rect x="226" y="448" width="16" height="17" fill="#b9d6e6" /><rect x="226" y="470" width="16" height="17" fill="#b9d6e6" /><rect x="226" y="492" width="16" height="17" fill="#b9d6e6" /><rect x="586" y="166" width="16" height="17" fill="#b9d6e6" /><rect x="586" y="188" width="16" height="17" fill="#b9d6e6" /><rect x="586" y="210" width="16" height="17" fill="#b9d6e6" /><rect x="586" y="232" width="16" height="17" fill="#9ec0d3" /><rect x="586" y="254" width="16" height="17" fill="#b9d6e6" /><rect x="586" y="276" width="16" height="17" fill="#b9d6e6" /><rect x="586" y="298" width="16" height="17" fill="#b9d6e6" /><rect x="586" y="320" width="16" height="17" fill="#b9d6e6" /><rect x="586" y="342" width="16" height="17" fill="#b9d6e6" /><rect x="586" y="364" width="16" height="17" fill="#b9d6e6" /><rect x="586" y="386" width="16" height="17" fill="#9ec0d3" /><rect x="586" y="408" width="16" height="17" fill="#b9d6e6" /><rect x="586" y="430" width="16" height="17" fill="#9ec0d3" /><rect x="586" y="452" width="16" height="17" fill="#9ec0d3" /><rect x="586" y="474" width="16" height="17" fill="#9ec0d3" /><rect x="586" y="496" width="16" height="17" fill="#9ec0d3" /><rect x="606" y="166" width="16" height="17" fill="#b9d6e6" /><rect x="606" y="188" width="16" height="17" fill="#9ec0d3" /><rect x="606" y="210" width="16" height="17" fill="#9ec0d3" /><rect x="606" y="232" width="16" height="17" fill="#9ec0d3" /><rect x="606" y="254" width="16" height="17" fill="#9ec0d3" /><rect x="606" y="276" width="16" height="17" fill="#b9d6e6" /><rect x="606" y="298" width="16" height="17" fill="#9ec0d3" /><rect x="606" y="320" width="16" height="17" fill="#b9d6e6" /><rect x="606" y="342" width="16" height="17" fill="#b9d6e6" /><rect x="606" y="364" width="16" height="17" fill="#9ec0d3" /><rect x="606" y="386" width="16" height="17" fill="#9ec0d3" /><rect x="606" y="408" width="16" height="17" fill="#b9d6e6" /><rect x="606" y="430" width="16" height="17" fill="#b9d6e6" /><rect x="606" y="452" width="16" height="17" fill="#9ec0d3" /><rect x="606" y="474" width="16" height="17" fill="#b9d6e6" /><rect x="606" y="496" width="16" height="17" fill="#b9d6e6" /><rect x="626" y="166" width="16" height="17" fill="#b9d6e6" /><rect x="626" y="188" width="16" height="17" fill="#b9d6e6" /><rect x="626" y="210" width="16" height="17" fill="#9ec0d3" /><rect x="626" y="232" width="16" height="17" fill="#9ec0d3" /><rect x="626" y="254" width="16" height="17" fill="#b9d6e6" /><rect x="626" y="276" width="16" height="17" fill="#9ec0d3" /><rect x="626" y="298" width="16" height="17" fill="#b9d6e6" /><rect x="626" y="320" width="16" height="17" fill="#9ec0d3" /><rect x="626" y="342" width="16" height="17" fill="#9ec0d3" /><rect x="626" y="364" width="16" height="17" fill="#b9d6e6" /><rect x="626" y="386" width="16" height="17" fill="#b9d6e6" /><rect x="626" y="408" width="16" height="17" fill="#9ec0d3" /><rect x="626" y="430" width="16" height="17" fill="#b9d6e6" /><rect x="626" y="452" width="16" height="17" fill="#9ec0d3" /><rect x="626" y="474" width="16" height="17" fill="#b9d6e6" /><rect x="626" y="496" width="16" height="17" fill="#b9d6e6" /><rect x="646" y="166" width="16" height="17" fill="#b9d6e6" /><rect x="646" y="188" width="16" height="17" fill="#b9d6e6" /><rect x="646" y="210" width="16" height="17" fill="#9ec0d3" /><rect x="646" y="232" width="16" height="17" fill="#b9d6e6" /><rect x="646" y="254" width="16" height="17" fill="#9ec0d3" /><rect x="646" y="276" width="16" height="17" fill="#b9d6e6" /><rect x="646" y="298" width="16" height="17" fill="#b9d6e6" /><rect x="646" y="320" width="16" height="17" fill="#b9d6e6" /><rect x="646" y="342" width="16" height="17" fill="#b9d6e6" /><rect x="646" y="364" width="16" height="17" fill="#9ec0d3" /><rect x="646" y="386" width="16" height="17" fill="#b9d6e6" /><rect x="646" y="408" width="16" height="17" fill="#b9d6e6" /><rect x="646" y="430" width="16" height="17" fill="#b9d6e6" /><rect x="646" y="452" width="16" height="17" fill="#b9d6e6" /><rect x="646" y="474" width="16" height="17" fill="#b9d6e6" /><rect x="646" y="496" width="16" height="17" fill="#b9d6e6" /><rect x="666" y="166" width="16" height="17" fill="#9ec0d3" /><rect x="666" y="188" width="16" height="17" fill="#b9d6e6" /><rect x="666" y="210" width="16" height="17" fill="#b9d6e6" /><rect x="666" y="232" width="16" height="17" fill="#9ec0d3" /><rect x="666" y="254" width="16" height="17" fill="#9ec0d3" /><rect x="666" y="276" width="16" height="17" fill="#9ec0d3" /><rect x="666" y="298" width="16" height="17" fill="#9ec0d3" /><rect x="666" y="320" width="16" height="17" fill="#b9d6e6" /><rect x="666" y="342" width="16" height="17" fill="#b9d6e6" /><rect x="666" y="364" width="16" height="17" fill="#b9d6e6" /><rect x="666" y="386" width="16" height="17" fill="#b9d6e6" /><rect x="666" y="408" width="16" height="17" fill="#b9d6e6" /><rect x="666" y="430" width="16" height="17" fill="#b9d6e6" /><rect x="666" y="452" width="16" height="17" fill="#b9d6e6" /><rect x="666" y="474" width="16" height="17" fill="#9ec0d3" /><rect x="666" y="496" width="16" height="17" fill="#9ec0d3" /><rect x="686" y="166" width="16" height="17" fill="#9ec0d3" /><rect x="686" y="188" width="16" height="17" fill="#9ec0d3" /><rect x="686" y="210" width="16" height="17" fill="#b9d6e6" /><rect x="686" y="232" width="16" height="17" fill="#b9d6e6" /><rect x="686" y="254" width="16" height="17" fill="#b9d6e6" /><rect x="686" y="276" width="16" height="17" fill="#b9d6e6" /><rect x="686" y="298" width="16" height="17" fill="#b9d6e6" /><rect x="686" y="320" width="16" height="17" fill="#b9d6e6" /><rect x="686" y="342" width="16" height="17" fill="#9ec0d3" /><rect x="686" y="364" width="16" height="17" fill="#b9d6e6" /><rect x="686" y="386" width="16" height="17" fill="#b9d6e6" /><rect x="686" y="408" width="16" height="17" fill="#b9d6e6" /><rect x="686" y="430" width="16" height="17" fill="#b9d6e6" /><rect x="686" y="452" width="16" height="17" fill="#b9d6e6" /><rect x="686" y="474" width="16" height="17" fill="#9ec0d3" /><rect x="686" y="496" width="16" height="17" fill="#b9d6e6" /><rect x="706" y="166" width="16" height="17" fill="#b9d6e6" /><rect x="706" y="188" width="16" height="17" fill="#b9d6e6" /><rect x="706" y="210" width="16" height="17" fill="#b9d6e6" /><rect x="706" y="232" width="16" height="17" fill="#b9d6e6" /><rect x="706" y="254" width="16" height="17" fill="#b9d6e6" /><rect x="706" y="276" width="16" height="17" fill="#b9d6e6" /><rect x="706" y="298" width="16" height="17" fill="#b9d6e6" /><rect x="706" y="320" width="16" height="17" fill="#9ec0d3" /><rect x="706" y="342" width="16" height="17" fill="#9ec0d3" /><rect x="706" y="364" width="16" height="17" fill="#9ec0d3" /><rect x="706" y="386" width="16" height="17" fill="#b9d6e6" /><rect x="706" y="408" width="16" height="17" fill="#b9d6e6" /><rect x="706" y="430" width="16" height="17" fill="#9ec0d3" /><rect x="706" y="452" width="16" height="17" fill="#b9d6e6" /><rect x="706" y="474" width="16" height="17" fill="#b9d6e6" /><rect x="706" y="496" width="16" height="17" fill="#b9d6e6" /><rect x="270" y="40" width="290" height="480" fill="#33424d"  filter="url(#sh)"/><rect x="278" y="50" width="31" height="20" fill="#5b97ba" /><polygon points="278,50 296,50 282,70 278,70" fill="#fff" opacity=".25"/><rect x="278" y="73" width="31" height="20" fill="#8dc0da" /><polygon points="278,73 296,73 282,93 278,93" fill="#fff" opacity=".25"/><rect x="278" y="96" width="31" height="20" fill="#8dc0da" /><polygon points="278,96 296,96 282,116 278,116" fill="#fff" opacity=".25"/><rect x="278" y="119" width="31" height="20" fill="#6fa8c8" /><polygon points="278,119 296,119 282,139 278,139" fill="#fff" opacity=".25"/><rect x="278" y="142" width="31" height="20" fill="#6fa8c8" /><polygon points="278,142 296,142 282,162 278,162" fill="#fff" opacity=".25"/><rect x="278" y="165" width="31" height="20" fill="#6fa8c8" /><polygon points="278,165 296,165 282,185 278,185" fill="#fff" opacity=".25"/><rect x="278" y="188" width="31" height="20" fill="#8dc0da" /><polygon points="278,188 296,188 282,208 278,208" fill="#fff" opacity=".25"/><rect x="278" y="211" width="31" height="20" fill="#a7d3e6" /><polygon points="278,211 296,211 282,231 278,231" fill="#fff" opacity=".25"/><rect x="278" y="234" width="31" height="20" fill="#8dc0da" /><polygon points="278,234 296,234 282,254 278,254" fill="#fff" opacity=".25"/><rect x="278" y="257" width="31" height="20" fill="#8dc0da" /><polygon points="278,257 296,257 282,277 278,277" fill="#fff" opacity=".25"/><rect x="278" y="280" width="31" height="20" fill="#6fa8c8" /><polygon points="278,280 296,280 282,300 278,300" fill="#fff" opacity=".25"/><rect x="278" y="303" width="31" height="20" fill="#5b97ba" /><polygon points="278,303 296,303 282,323 278,323" fill="#fff" opacity=".25"/><rect x="278" y="326" width="31" height="20" fill="#8dc0da" /><polygon points="278,326 296,326 282,346 278,346" fill="#fff" opacity=".25"/><rect x="278" y="349" width="31" height="20" fill="#5b97ba" /><polygon points="278,349 296,349 282,369 278,369" fill="#fff" opacity=".25"/><rect x="278" y="372" width="31" height="20" fill="#8dc0da" /><polygon points="278,372 296,372 282,392 278,392" fill="#fff" opacity=".25"/><rect x="278" y="395" width="31" height="20" fill="#5b97ba" /><polygon points="278,395 296,395 282,415 278,415" fill="#fff" opacity=".25"/><rect x="278" y="418" width="31" height="20" fill="#5b97ba" /><polygon points="278,418 296,418 282,438 278,438" fill="#fff" opacity=".25"/><rect x="278" y="441" width="31" height="20" fill="#a7d3e6" /><polygon points="278,441 296,441 282,461 278,461" fill="#fff" opacity=".25"/><rect x="278" y="464" width="31" height="20" fill="#8dc0da" /><polygon points="278,464 296,464 282,484 278,484" fill="#fff" opacity=".25"/><rect x="278" y="487" width="31" height="20" fill="#6fa8c8" /><polygon points="278,487 296,487 282,507 278,507" fill="#fff" opacity=".25"/><rect x="313" y="50" width="31" height="20" fill="#5b97ba" /><polygon points="313,50 331,50 317,70 313,70" fill="#fff" opacity=".25"/><rect x="313" y="73" width="31" height="20" fill="#a7d3e6" /><polygon points="313,73 331,73 317,93 313,93" fill="#fff" opacity=".25"/><rect x="313" y="96" width="31" height="20" fill="#a7d3e6" /><polygon points="313,96 331,96 317,116 313,116" fill="#fff" opacity=".25"/><rect x="313" y="119" width="31" height="20" fill="#8dc0da" /><polygon points="313,119 331,119 317,139 313,139" fill="#fff" opacity=".25"/><rect x="313" y="142" width="31" height="20" fill="#8dc0da" /><polygon points="313,142 331,142 317,162 313,162" fill="#fff" opacity=".25"/><rect x="313" y="165" width="31" height="20" fill="#6fa8c8" /><polygon points="313,165 331,165 317,185 313,185" fill="#fff" opacity=".25"/><rect x="313" y="188" width="31" height="20" fill="#a7d3e6" /><polygon points="313,188 331,188 317,208 313,208" fill="#fff" opacity=".25"/><rect x="313" y="211" width="31" height="20" fill="#8dc0da" /><polygon points="313,211 331,211 317,231 313,231" fill="#fff" opacity=".25"/><rect x="313" y="234" width="31" height="20" fill="#6fa8c8" /><polygon points="313,234 331,234 317,254 313,254" fill="#fff" opacity=".25"/><rect x="313" y="257" width="31" height="20" fill="#8dc0da" /><polygon points="313,257 331,257 317,277 313,277" fill="#fff" opacity=".25"/><rect x="313" y="280" width="31" height="20" fill="#8dc0da" /><polygon points="313,280 331,280 317,300 313,300" fill="#fff" opacity=".25"/><rect x="313" y="303" width="31" height="20" fill="#8dc0da" /><polygon points="313,303 331,303 317,323 313,323" fill="#fff" opacity=".25"/><rect x="313" y="326" width="31" height="20" fill="#a7d3e6" /><polygon points="313,326 331,326 317,346 313,346" fill="#fff" opacity=".25"/><rect x="313" y="349" width="31" height="20" fill="#6fa8c8" /><polygon points="313,349 331,349 317,369 313,369" fill="#fff" opacity=".25"/><rect x="313" y="372" width="31" height="20" fill="#6fa8c8" /><polygon points="313,372 331,372 317,392 313,392" fill="#fff" opacity=".25"/><rect x="313" y="395" width="31" height="20" fill="#5b97ba" /><polygon points="313,395 331,395 317,415 313,415" fill="#fff" opacity=".25"/><rect x="313" y="418" width="31" height="20" fill="#a7d3e6" /><polygon points="313,418 331,418 317,438 313,438" fill="#fff" opacity=".25"/><rect x="313" y="441" width="31" height="20" fill="#6fa8c8" /><polygon points="313,441 331,441 317,461 313,461" fill="#fff" opacity=".25"/><rect x="313" y="464" width="31" height="20" fill="#6fa8c8" /><polygon points="313,464 331,464 317,484 313,484" fill="#fff" opacity=".25"/><rect x="313" y="487" width="31" height="20" fill="#8dc0da" /><polygon points="313,487 331,487 317,507 313,507" fill="#fff" opacity=".25"/><rect x="348" y="50" width="31" height="20" fill="#8dc0da" /><polygon points="348,50 366,50 352,70 348,70" fill="#fff" opacity=".25"/><rect x="348" y="73" width="31" height="20" fill="#5b97ba" /><polygon points="348,73 366,73 352,93 348,93" fill="#fff" opacity=".25"/><rect x="348" y="96" width="31" height="20" fill="#6fa8c8" /><polygon points="348,96 366,96 352,116 348,116" fill="#fff" opacity=".25"/><rect x="348" y="119" width="31" height="20" fill="#6fa8c8" /><polygon points="348,119 366,119 352,139 348,139" fill="#fff" opacity=".25"/><rect x="348" y="142" width="31" height="20" fill="#a7d3e6" /><polygon points="348,142 366,142 352,162 348,162" fill="#fff" opacity=".25"/><rect x="348" y="165" width="31" height="20" fill="#6fa8c8" /><polygon points="348,165 366,165 352,185 348,185" fill="#fff" opacity=".25"/><rect x="348" y="188" width="31" height="20" fill="#6fa8c8" /><polygon points="348,188 366,188 352,208 348,208" fill="#fff" opacity=".25"/><rect x="348" y="211" width="31" height="20" fill="#a7d3e6" /><polygon points="348,211 366,211 352,231 348,231" fill="#fff" opacity=".25"/><rect x="348" y="234" width="31" height="20" fill="#5b97ba" /><polygon points="348,234 366,234 352,254 348,254" fill="#fff" opacity=".25"/><rect x="348" y="257" width="31" height="20" fill="#8dc0da" /><polygon points="348,257 366,257 352,277 348,277" fill="#fff" opacity=".25"/><rect x="348" y="280" width="31" height="20" fill="#5b97ba" /><polygon points="348,280 366,280 352,300 348,300" fill="#fff" opacity=".25"/><rect x="348" y="303" width="31" height="20" fill="#a7d3e6" /><polygon points="348,303 366,303 352,323 348,323" fill="#fff" opacity=".25"/><rect x="348" y="326" width="31" height="20" fill="#a7d3e6" /><polygon points="348,326 366,326 352,346 348,346" fill="#fff" opacity=".25"/><rect x="348" y="349" width="31" height="20" fill="#8dc0da" /><polygon points="348,349 366,349 352,369 348,369" fill="#fff" opacity=".25"/><rect x="348" y="372" width="31" height="20" fill="#5b97ba" /><polygon points="348,372 366,372 352,392 348,392" fill="#fff" opacity=".25"/><rect x="348" y="395" width="31" height="20" fill="#8dc0da" /><polygon points="348,395 366,395 352,415 348,415" fill="#fff" opacity=".25"/><rect x="348" y="418" width="31" height="20" fill="#a7d3e6" /><polygon points="348,418 366,418 352,438 348,438" fill="#fff" opacity=".25"/><rect x="348" y="441" width="31" height="20" fill="#8dc0da" /><polygon points="348,441 366,441 352,461 348,461" fill="#fff" opacity=".25"/><rect x="348" y="464" width="31" height="20" fill="#a7d3e6" /><polygon points="348,464 366,464 352,484 348,484" fill="#fff" opacity=".25"/><rect x="348" y="487" width="31" height="20" fill="#6fa8c8" /><polygon points="348,487 366,487 352,507 348,507" fill="#fff" opacity=".25"/><rect x="383" y="50" width="31" height="20" fill="#a7d3e6" /><polygon points="383,50 401,50 387,70 383,70" fill="#fff" opacity=".25"/><rect x="383" y="73" width="31" height="20" fill="#a7d3e6" /><polygon points="383,73 401,73 387,93 383,93" fill="#fff" opacity=".25"/><rect x="383" y="96" width="31" height="20" fill="#5b97ba" /><polygon points="383,96 401,96 387,116 383,116" fill="#fff" opacity=".25"/><rect x="383" y="119" width="31" height="20" fill="#6fa8c8" /><polygon points="383,119 401,119 387,139 383,139" fill="#fff" opacity=".25"/><rect x="383" y="142" width="31" height="20" fill="#8dc0da" /><polygon points="383,142 401,142 387,162 383,162" fill="#fff" opacity=".25"/><rect x="383" y="165" width="31" height="20" fill="#a7d3e6" /><polygon points="383,165 401,165 387,185 383,185" fill="#fff" opacity=".25"/><rect x="383" y="188" width="31" height="20" fill="#6fa8c8" /><polygon points="383,188 401,188 387,208 383,208" fill="#fff" opacity=".25"/><rect x="383" y="211" width="31" height="20" fill="#8dc0da" /><polygon points="383,211 401,211 387,231 383,231" fill="#fff" opacity=".25"/><rect x="383" y="234" width="31" height="20" fill="#5b97ba" /><polygon points="383,234 401,234 387,254 383,254" fill="#fff" opacity=".25"/><rect x="383" y="257" width="31" height="20" fill="#6fa8c8" /><polygon points="383,257 401,257 387,277 383,277" fill="#fff" opacity=".25"/><rect x="383" y="280" width="31" height="20" fill="#8dc0da" /><polygon points="383,280 401,280 387,300 383,300" fill="#fff" opacity=".25"/><rect x="383" y="303" width="31" height="20" fill="#5b97ba" /><polygon points="383,303 401,303 387,323 383,323" fill="#fff" opacity=".25"/><rect x="383" y="326" width="31" height="20" fill="#8dc0da" /><polygon points="383,326 401,326 387,346 383,346" fill="#fff" opacity=".25"/><rect x="383" y="349" width="31" height="20" fill="#5b97ba" /><polygon points="383,349 401,349 387,369 383,369" fill="#fff" opacity=".25"/><rect x="383" y="372" width="31" height="20" fill="#8dc0da" /><polygon points="383,372 401,372 387,392 383,392" fill="#fff" opacity=".25"/><rect x="383" y="395" width="31" height="20" fill="#a7d3e6" /><polygon points="383,395 401,395 387,415 383,415" fill="#fff" opacity=".25"/><rect x="383" y="418" width="31" height="20" fill="#8dc0da" /><polygon points="383,418 401,418 387,438 383,438" fill="#fff" opacity=".25"/><rect x="383" y="441" width="31" height="20" fill="#6fa8c8" /><polygon points="383,441 401,441 387,461 383,461" fill="#fff" opacity=".25"/><rect x="383" y="464" width="31" height="20" fill="#a7d3e6" /><polygon points="383,464 401,464 387,484 383,484" fill="#fff" opacity=".25"/><rect x="383" y="487" width="31" height="20" fill="#a7d3e6" /><polygon points="383,487 401,487 387,507 383,507" fill="#fff" opacity=".25"/><rect x="418" y="50" width="31" height="20" fill="#8dc0da" /><polygon points="418,50 436,50 422,70 418,70" fill="#fff" opacity=".25"/><rect x="418" y="73" width="31" height="20" fill="#8dc0da" /><polygon points="418,73 436,73 422,93 418,93" fill="#fff" opacity=".25"/><rect x="418" y="96" width="31" height="20" fill="#8dc0da" /><polygon points="418,96 436,96 422,116 418,116" fill="#fff" opacity=".25"/><rect x="418" y="119" width="31" height="20" fill="#a7d3e6" /><polygon points="418,119 436,119 422,139 418,139" fill="#fff" opacity=".25"/><rect x="418" y="142" width="31" height="20" fill="#a7d3e6" /><polygon points="418,142 436,142 422,162 418,162" fill="#fff" opacity=".25"/><rect x="418" y="165" width="31" height="20" fill="#5b97ba" /><polygon points="418,165 436,165 422,185 418,185" fill="#fff" opacity=".25"/><rect x="418" y="188" width="31" height="20" fill="#a7d3e6" /><polygon points="418,188 436,188 422,208 418,208" fill="#fff" opacity=".25"/><rect x="418" y="211" width="31" height="20" fill="#8dc0da" /><polygon points="418,211 436,211 422,231 418,231" fill="#fff" opacity=".25"/><rect x="418" y="234" width="31" height="20" fill="#5b97ba" /><polygon points="418,234 436,234 422,254 418,254" fill="#fff" opacity=".25"/><rect x="418" y="257" width="31" height="20" fill="#5b97ba" /><polygon points="418,257 436,257 422,277 418,277" fill="#fff" opacity=".25"/><rect x="418" y="280" width="31" height="20" fill="#6fa8c8" /><polygon points="418,280 436,280 422,300 418,300" fill="#fff" opacity=".25"/><rect x="418" y="303" width="31" height="20" fill="#5b97ba" /><polygon points="418,303 436,303 422,323 418,323" fill="#fff" opacity=".25"/><rect x="418" y="326" width="31" height="20" fill="#6fa8c8" /><polygon points="418,326 436,326 422,346 418,346" fill="#fff" opacity=".25"/><rect x="418" y="349" width="31" height="20" fill="#5b97ba" /><polygon points="418,349 436,349 422,369 418,369" fill="#fff" opacity=".25"/><rect x="418" y="372" width="31" height="20" fill="#a7d3e6" /><polygon points="418,372 436,372 422,392 418,392" fill="#fff" opacity=".25"/><rect x="418" y="395" width="31" height="20" fill="#a7d3e6" /><polygon points="418,395 436,395 422,415 418,415" fill="#fff" opacity=".25"/><rect x="418" y="418" width="31" height="20" fill="#6fa8c8" /><polygon points="418,418 436,418 422,438 418,438" fill="#fff" opacity=".25"/><rect x="418" y="441" width="31" height="20" fill="#a7d3e6" /><polygon points="418,441 436,441 422,461 418,461" fill="#fff" opacity=".25"/><rect x="418" y="464" width="31" height="20" fill="#5b97ba" /><polygon points="418,464 436,464 422,484 418,484" fill="#fff" opacity=".25"/><rect x="418" y="487" width="31" height="20" fill="#5b97ba" /><polygon points="418,487 436,487 422,507 418,507" fill="#fff" opacity=".25"/><rect x="453" y="50" width="31" height="20" fill="#6fa8c8" /><polygon points="453,50 471,50 457,70 453,70" fill="#fff" opacity=".25"/><rect x="453" y="73" width="31" height="20" fill="#6fa8c8" /><polygon points="453,73 471,73 457,93 453,93" fill="#fff" opacity=".25"/><rect x="453" y="96" width="31" height="20" fill="#8dc0da" /><polygon points="453,96 471,96 457,116 453,116" fill="#fff" opacity=".25"/><rect x="453" y="119" width="31" height="20" fill="#6fa8c8" /><polygon points="453,119 471,119 457,139 453,139" fill="#fff" opacity=".25"/><rect x="453" y="142" width="31" height="20" fill="#6fa8c8" /><polygon points="453,142 471,142 457,162 453,162" fill="#fff" opacity=".25"/><rect x="453" y="165" width="31" height="20" fill="#5b97ba" /><polygon points="453,165 471,165 457,185 453,185" fill="#fff" opacity=".25"/><rect x="453" y="188" width="31" height="20" fill="#5b97ba" /><polygon points="453,188 471,188 457,208 453,208" fill="#fff" opacity=".25"/><rect x="453" y="211" width="31" height="20" fill="#6fa8c8" /><polygon points="453,211 471,211 457,231 453,231" fill="#fff" opacity=".25"/><rect x="453" y="234" width="31" height="20" fill="#8dc0da" /><polygon points="453,234 471,234 457,254 453,254" fill="#fff" opacity=".25"/><rect x="453" y="257" width="31" height="20" fill="#5b97ba" /><polygon points="453,257 471,257 457,277 453,277" fill="#fff" opacity=".25"/><rect x="453" y="280" width="31" height="20" fill="#8dc0da" /><polygon points="453,280 471,280 457,300 453,300" fill="#fff" opacity=".25"/><rect x="453" y="303" width="31" height="20" fill="#a7d3e6" /><polygon points="453,303 471,303 457,323 453,323" fill="#fff" opacity=".25"/><rect x="453" y="326" width="31" height="20" fill="#5b97ba" /><polygon points="453,326 471,326 457,346 453,346" fill="#fff" opacity=".25"/><rect x="453" y="349" width="31" height="20" fill="#a7d3e6" /><polygon points="453,349 471,349 457,369 453,369" fill="#fff" opacity=".25"/><rect x="453" y="372" width="31" height="20" fill="#8dc0da" /><polygon points="453,372 471,372 457,392 453,392" fill="#fff" opacity=".25"/><rect x="453" y="395" width="31" height="20" fill="#a7d3e6" /><polygon points="453,395 471,395 457,415 453,415" fill="#fff" opacity=".25"/><rect x="453" y="418" width="31" height="20" fill="#5b97ba" /><polygon points="453,418 471,418 457,438 453,438" fill="#fff" opacity=".25"/><rect x="453" y="441" width="31" height="20" fill="#6fa8c8" /><polygon points="453,441 471,441 457,461 453,461" fill="#fff" opacity=".25"/><rect x="453" y="464" width="31" height="20" fill="#5b97ba" /><polygon points="453,464 471,464 457,484 453,484" fill="#fff" opacity=".25"/><rect x="453" y="487" width="31" height="20" fill="#6fa8c8" /><polygon points="453,487 471,487 457,507 453,507" fill="#fff" opacity=".25"/><rect x="488" y="50" width="31" height="20" fill="#8dc0da" /><polygon points="488,50 506,50 492,70 488,70" fill="#fff" opacity=".25"/><rect x="488" y="73" width="31" height="20" fill="#a7d3e6" /><polygon points="488,73 506,73 492,93 488,93" fill="#fff" opacity=".25"/><rect x="488" y="96" width="31" height="20" fill="#6fa8c8" /><polygon points="488,96 506,96 492,116 488,116" fill="#fff" opacity=".25"/><rect x="488" y="119" width="31" height="20" fill="#5b97ba" /><polygon points="488,119 506,119 492,139 488,139" fill="#fff" opacity=".25"/><rect x="488" y="142" width="31" height="20" fill="#6fa8c8" /><polygon points="488,142 506,142 492,162 488,162" fill="#fff" opacity=".25"/><rect x="488" y="165" width="31" height="20" fill="#6fa8c8" /><polygon points="488,165 506,165 492,185 488,185" fill="#fff" opacity=".25"/><rect x="488" y="188" width="31" height="20" fill="#5b97ba" /><polygon points="488,188 506,188 492,208 488,208" fill="#fff" opacity=".25"/><rect x="488" y="211" width="31" height="20" fill="#6fa8c8" /><polygon points="488,211 506,211 492,231 488,231" fill="#fff" opacity=".25"/><rect x="488" y="234" width="31" height="20" fill="#8dc0da" /><polygon points="488,234 506,234 492,254 488,254" fill="#fff" opacity=".25"/><rect x="488" y="257" width="31" height="20" fill="#6fa8c8" /><polygon points="488,257 506,257 492,277 488,277" fill="#fff" opacity=".25"/><rect x="488" y="280" width="31" height="20" fill="#5b97ba" /><polygon points="488,280 506,280 492,300 488,300" fill="#fff" opacity=".25"/><rect x="488" y="303" width="31" height="20" fill="#6fa8c8" /><polygon points="488,303 506,303 492,323 488,323" fill="#fff" opacity=".25"/><rect x="488" y="326" width="31" height="20" fill="#a7d3e6" /><polygon points="488,326 506,326 492,346 488,346" fill="#fff" opacity=".25"/><rect x="488" y="349" width="31" height="20" fill="#6fa8c8" /><polygon points="488,349 506,349 492,369 488,369" fill="#fff" opacity=".25"/><rect x="488" y="372" width="31" height="20" fill="#5b97ba" /><polygon points="488,372 506,372 492,392 488,392" fill="#fff" opacity=".25"/><rect x="488" y="395" width="31" height="20" fill="#a7d3e6" /><polygon points="488,395 506,395 492,415 488,415" fill="#fff" opacity=".25"/><rect x="488" y="418" width="31" height="20" fill="#5b97ba" /><polygon points="488,418 506,418 492,438 488,438" fill="#fff" opacity=".25"/><rect x="488" y="441" width="31" height="20" fill="#8dc0da" /><polygon points="488,441 506,441 492,461 488,461" fill="#fff" opacity=".25"/><rect x="488" y="464" width="31" height="20" fill="#6fa8c8" /><polygon points="488,464 506,464 492,484 488,484" fill="#fff" opacity=".25"/><rect x="488" y="487" width="31" height="20" fill="#8dc0da" /><polygon points="488,487 506,487 492,507 488,507" fill="#fff" opacity=".25"/><rect x="523" y="50" width="31" height="20" fill="#6fa8c8" /><polygon points="523,50 541,50 527,70 523,70" fill="#fff" opacity=".25"/><rect x="523" y="73" width="31" height="20" fill="#8dc0da" /><polygon points="523,73 541,73 527,93 523,93" fill="#fff" opacity=".25"/><rect x="523" y="96" width="31" height="20" fill="#5b97ba" /><polygon points="523,96 541,96 527,116 523,116" fill="#fff" opacity=".25"/><rect x="523" y="119" width="31" height="20" fill="#6fa8c8" /><polygon points="523,119 541,119 527,139 523,139" fill="#fff" opacity=".25"/><rect x="523" y="142" width="31" height="20" fill="#8dc0da" /><polygon points="523,142 541,142 527,162 523,162" fill="#fff" opacity=".25"/><rect x="523" y="165" width="31" height="20" fill="#8dc0da" /><polygon points="523,165 541,165 527,185 523,185" fill="#fff" opacity=".25"/><rect x="523" y="188" width="31" height="20" fill="#5b97ba" /><polygon points="523,188 541,188 527,208 523,208" fill="#fff" opacity=".25"/><rect x="523" y="211" width="31" height="20" fill="#5b97ba" /><polygon points="523,211 541,211 527,231 523,231" fill="#fff" opacity=".25"/><rect x="523" y="234" width="31" height="20" fill="#8dc0da" /><polygon points="523,234 541,234 527,254 523,254" fill="#fff" opacity=".25"/><rect x="523" y="257" width="31" height="20" fill="#5b97ba" /><polygon points="523,257 541,257 527,277 523,277" fill="#fff" opacity=".25"/><rect x="523" y="280" width="31" height="20" fill="#a7d3e6" /><polygon points="523,280 541,280 527,300 523,300" fill="#fff" opacity=".25"/><rect x="523" y="303" width="31" height="20" fill="#8dc0da" /><polygon points="523,303 541,303 527,323 523,323" fill="#fff" opacity=".25"/><rect x="523" y="326" width="31" height="20" fill="#5b97ba" /><polygon points="523,326 541,326 527,346 523,346" fill="#fff" opacity=".25"/><rect x="523" y="349" width="31" height="20" fill="#5b97ba" /><polygon points="523,349 541,349 527,369 523,369" fill="#fff" opacity=".25"/><rect x="523" y="372" width="31" height="20" fill="#6fa8c8" /><polygon points="523,372 541,372 527,392 523,392" fill="#fff" opacity=".25"/><rect x="523" y="395" width="31" height="20" fill="#5b97ba" /><polygon points="523,395 541,395 527,415 523,415" fill="#fff" opacity=".25"/><rect x="523" y="418" width="31" height="20" fill="#6fa8c8" /><polygon points="523,418 541,418 527,438 523,438" fill="#fff" opacity=".25"/><rect x="523" y="441" width="31" height="20" fill="#6fa8c8" /><polygon points="523,441 541,441 527,461 523,461" fill="#fff" opacity=".25"/><rect x="523" y="464" width="31" height="20" fill="#6fa8c8" /><polygon points="523,464 541,464 527,484 523,484" fill="#fff" opacity=".25"/><rect x="523" y="487" width="31" height="20" fill="#8dc0da" /><polygon points="523,487 541,487 527,507 523,507" fill="#fff" opacity=".25"/><rect x="262" y="34" width="306" height="12" fill="url(#dk)" /><rect x="350" y="470" width="130" height="50" fill="#1e282f" /><rect x="356" y="476" width="56" height="44" rx="0" fill="url(#gl)" stroke="#e9f6f8" stroke-opacity=".8"/><polygon points="356,476 386.8,476 364.4,520 356,520" fill="url(#rf)" opacity=".8"/><rect x="418" y="476" width="56" height="44" rx="0" fill="url(#gl)" stroke="#e9f6f8" stroke-opacity=".8"/><polygon points="418,476 448.8,476 426.4,520 418,520" fill="url(#rf)" opacity=".8"/><rect x="0" y="520" width="800" height="80" fill="url(#gr)" /><rect x="0" y="520" width="800" height="3" fill="#c9ccce" /><g transform="translate(60,470) scale(0.9)"><rect x="-4" y="0" width="8" height="50" fill="#5a4330"/><circle cx="0" cy="-10" r="38" fill="#3d7a35"/><circle cx="-22" cy="8" r="26" fill="#4a8c3e"/><circle cx="22" cy="6" r="28" fill="#2f6a2c"/></g><g transform="translate(750,470) scale(1)"><rect x="-4" y="0" width="8" height="50" fill="#5a4330"/><circle cx="0" cy="-10" r="38" fill="#3d7a35"/><circle cx="-22" cy="8" r="26" fill="#4a8c3e"/><circle cx="22" cy="6" r="28" fill="#2f6a2c"/></g></svg>