<svg xmlns="http://www.w3.org/2000/svg" viewBox="0 33 800 533" width="1200" height="800" preserveAspectRatio="xMidYMid slice"><defs>
<linearGradient id="sky" x1="0" y1="0" x2="0" y2="1"><stop offset="0" stop-color="#3f86c4"/><stop offset=".65" stop-color="#9fd0ee"/><stop offset="1" stop-color="#e3f2fa"/></linearGradient>
<linearGradient id="gl" x1="0" y1="0" x2="1" y2="1"><stop offset="0" stop-color="#cfeaf1" stop-opacity=".55"/><stop offset=".5" stop-color="#7fbfd2" stop-opacity=".35"/><stop offset="1" stop-color="#d9f1f4" stop-opacity=".5"/></linearGradient>
<linearGradient id="rf" x1="0" y1="0" x2="1" y2="0"><stop offset="0" stop-color="#fff" stop-opacity=".7"/><stop offset="1" stop-color="#fff" stop-opacity="0"/></linearGradient>
<linearGradient id="al" x1="0" y1="0" x2="1" y2="0"><stop offset="0" stop-color="#8b9197"/><stop offset=".45" stop-color="#eceff2"/><stop offset="1" stop-color="#868c92"/></linearGradient>
<linearGradient id="alv" x1="0" y1="0" x2="0" y2="1"><stop offset="0" stop-color="#eceff2"/><stop offset="1" stop-color="#8b9197"/></linearGradient>
<linearGradient id="dk" x1="0" y1="0" x2="1" y2="0"><stop offset="0" stop-color="#23272b"/><stop offset=".5" stop-color="#555c63"/><stop offset="1" stop-color="#23272b"/></linearGradient>
<linearGradient id="gr" x1="0" y1="0" x2="0" y2="1"><stop offset="0" stop-color="#8a8d90"/><stop offset="1" stop-color="#55585b"/></linearGradient>
<linearGradient id="fl" x1="0" y1="0" x2="0" y2="1"><stop offset="0" stop-color="#d9d3c8"/><stop offset="1" stop-color="#a9a296"/></linearGradient>
<linearGradient id="wl" x1="0" y1="0" x2="0" y2="1"><stop offset="0" stop-color="#f4f1ec"/><stop offset="1" stop-color="#dcd7cf"/></linearGradient>
<linearGradient id="grn" x1="0" y1="0" x2="0" y2="1"><stop offset="0" stop-color="#5f9a4a"/><stop offset="1" stop-color="#355f2b"/></linearGradient>
<filter id="blur"><feGaussianBlur stdDeviation="9"/></filter>
<filter id="sh" x="-20%" y="-20%" width="140%" height="150%"><feDropShadow dx="0" dy="6" stdDeviation="6" flood-opacity=".35"/></filter>
</defs><rect x="0" y="0" width="800" height="600" fill="url(#sky)" /><g fill="#fff" opacity=".85" filter="url(#blur)" transform="translate(0,10)"><ellipse cx="170" cy="120" rx="110" ry="26"/><ellipse cx="260" cy="105" rx="70" ry="22"/><ellipse cx="560" cy="210" rx="130" ry="28"/><ellipse cx="660" cy="190" rx="80" ry="22"/><ellipse cx="300" cy="360" rx="120" ry="24"/></g><rect x="80" y="90" width="640" height="430" fill="#f1f1f1"  filter="url(#sh)"/><rect x="84.0" y="94" width="87" height="106" fill="#c92a2a" /><rect x="84.0" y="94" width="87" height="106" fill="url(#rf)" opacity=".18"/><rect x="174.5" y="94" width="87" height="106" fill="#f2f2f2" /><rect x="174.5" y="94" width="87" height="106" fill="url(#rf)" opacity=".18"/><rect x="265.0" y="94" width="87" height="106" fill="#c92a2a" /><rect x="265.0" y="94" width="87" height="106" fill="url(#rf)" opacity=".18"/><rect x="355.5" y="94" width="87" height="106" fill="#f2f2f2" /><rect x="355.5" y="94" width="87" height="106" fill="url(#rf)" opacity=".18"/><rect x="446.0" y="94" width="87" height="106" fill="#c92a2a" /><rect x="446.0" y="94" width="87" height="106" fill="url(#rf)" opacity=".18"/><rect x="536.5" y="94" width="87" height="106" fill="#f2f2f2" /><rect x="536.5" y="94" width="87" height="106" fill="url(#rf)" opacity=".18"/><rect x="627.0" y="94" width="87" height="106" fill="#c92a2a" /><rect x="627.0" y="94" width="87" height="106" fill="url(#rf)" opacity=".18"/><rect x="80" y="200" width="640" height="40" fill="url(#dk)" /><text x="400" y="228" font-family="Arial Black,Arial,sans-serif" font-weight="900" font-size="28" fill="#fff" text-anchor="middle" letter-spacing="14">SEVEN</text><rect x="100" y="255" width="440" height="235" fill="#1e252a" /><rect x="106" y="261" width="212" height="224" rx="0" fill="url(#gl)" stroke="#e9f6f8" stroke-opacity=".8"/><polygon points="106,261 222.60000000000002,261 137.8,485 106,485" fill="url(#rf)" opacity=".8"/><rect x="324" y="261" width="212" height="224" rx="0" fill="url(#gl)" stroke="#e9f6f8" stroke-opacity=".8"/><polygon points="324,261 440.6,261 355.8,485 324,485" fill="url(#rf)" opacity=".8"/><rect x="318" y="255" width="6" height="235" fill="url(#al)" /><rect x="600" y="255" width="120" height="235" fill="#1e252a" /><rect x="606" y="261" width="108" height="224" rx="0" fill="url(#gl)" stroke="#e9f6f8" stroke-opacity=".8"/><polygon points="606,261 665.4,261 622.2,485 606,485" fill="url(#rf)" opacity=".8"/><rect x="658" y="261" width="5" height="224" fill="url(#al)" /><rect x="80" y="490" width="640" height="30" fill="#b9bcbf" /><rect x="0" y="520" width="800" height="80" fill="url(#gr)" /><rect x="0" y="520" width="800" height="3" fill="#c9ccce" /><rect x="40" y="520" width="720" height="14" fill="#bfc2c4" /><g transform="translate(40,470) scale(0.8)"><rect x="-4" y="0" width="8" height="50" fill="#5a4330"/><circle cx="0" cy="-10" r="38" fill="#3d7a35"/><circle cx="-22" cy="8" r="26" fill="#4a8c3e"/><circle cx="22" cy="6" r="28" fill="#2f6a2c"/></g><g transform="translate(765,470) scale(0.8)"><rect x="-4" y="0" width="8" height="50" fill="#5a4330"/><circle cx="0" cy="-10" r="38" fill="#3d7a35"/><circle cx="-22" cy="8" r="26" fill="#4a8c3e"/><circle cx="22" cy="6" r="28" fill="#2f6a2c"/></g></svg>